<svg xmlns="http://www.w3.org/2000/svg" viewBox="0 0 24 24">
<path fill="#181717"
d="M12 .5A11.5 11.5 0 0 0 .5 12
c0 5.1 3.3 9.4 7.9 10.9
.6.1.8-.3.8-.6v-2.3
c-3.2.7-3.9-1.4-3.9-1.4
-.5-1.3-1.3-1.7-1.3-1.7
-1-.7.1-.7.1-.7
1.1.1 1.7 1.1 1.7 1.1
1 .1.8 2.6 3.4 1.9
.1-.7.4-1.2.7-1.5
-2.6-.3-5.3-1.3-5.3-5.7
0-1.3.5-2.4 1.2-3.2
-.1-.3-.5-1.5.1-3.1
0 0 1-.3 3.3 1.2
a11.3 11.3 0 0 1 6 0
c2.3-1.5 3.3-1.2 3.3-1.2
.6 1.6.2 2.8.1 3.1
.8.8 1.2 1.9 1.2 3.2
0 4.4-2.7 5.4-5.3 5.7
.4.3.8 1 .8 2v3
c0 .3.2.7.8.6
A11.5 11.5 0 0 0 23.5 12
A11.5 11.5 0 0 0 12 .5z"/>
</svg>
